<svg width="40" height="40" viewBox="0 0 449 570" fill="none" xmlns="http://www.w3.org/2000/svg">
<rect width="449" height="570" fill="white"/>
<path d="M219.072 367.863L186.589 381.613C183.74 382.284 182.322 382.226 180.557 380.282C172.936 367.347 169.258 359.132 163.851 342.581V338.146L178.701 291.131L149.466 336.815L158.283 370.081C146.446 352.191 140.618 341.769 132.297 322.179C97.0727 303.184 72.4326 296.896 21.3921 292.018C42.2348 270.329 53.1427 257.643 69.652 233.027C49.4441 237.728 38.6434 241.245 20 248.551C54.2617 197.999 77.202 173.319 123.48 134.562C104.202 105.016 90.8972 89.0371 63.6195 61.3783C54.0324 101.172 55.2141 123.305 67.3318 162.505L55.2669 171.376C35.1504 120.116 33.8305 88.981 50.1624 29L153.179 120.369H220V315.082L200.046 315.969L188.445 327.945L219.072 360.323V367.863Z" fill="black" stroke="black"/>
<path d="M34 383.189L220 531V515.227L44.9412 375.528V325.056L34 321V383.189Z" fill="black" stroke="black"/>
<path d="M237 515.224V531C312.285 475.873 353.79 444.354 418.991 385.406V310.581C407.483 256.847 393.609 225.87 357.114 175.355C385.035 193.089 400.763 205.458 429 233.502C408.304 188.635 388.683 166.226 338.005 131.632C345.603 119.085 349.082 111.969 354.384 99.1775C340.223 99.791 332.704 99.1823 320.261 101.431C340.316 78.7916 351.929 66.2927 384.535 50.2745C391.273 87.782 390.504 107.919 380.318 141.548L391.237 148.31C403.549 97.3873 405.541 69.847 398.062 23C341.848 50.3423 315.515 70.1237 283.863 118.56H238.365V313.736C250.607 314.153 257.123 314.971 267.938 317.793C268.549 313.658 269.448 311.278 271.578 306.975C275.019 313.561 275.894 317.685 275.673 325.907C259.564 335.119 251.441 342.007 237.91 356.107V367.827L280.223 387.66C282.412 388.308 283.606 388.286 285.682 387.66C299.379 379.883 305.323 374.175 313.891 362.418L292.507 356.558C300.231 356.757 303.946 356.385 309.341 354.755C314.376 351.838 316.216 348.749 317.531 340.331H296.147C305.497 337.874 309.872 335.815 316.621 331.316C314.733 323.987 313.024 320.074 309.341 313.286C315.698 316.043 318.82 317.984 323.445 322.301C332.274 304.753 339.217 296.814 353.474 284.437C354.761 310.89 350.069 330.874 335.275 369.63C364.297 334.284 371.517 308.431 363.483 248.377C388.992 274.41 399.42 288.311 405.341 319.146V379.096L361.664 419.213C363.298 409.701 364.648 401.701 366.213 383.603C329.15 443.731 301.074 472.69 237 515.224Z" fill="black"/>
<path d="M384.412 49.5945C384.453 49.8218 384.494 50.0484 384.535 50.2745M384.535 50.2745C391.273 87.782 390.504 107.919 380.318 141.548L391.237 148.31C403.549 97.3873 405.541 69.847 398.062 23C341.848 50.3423 315.515 70.1237 283.863 118.56H238.365V313.736C250.607 314.153 257.123 314.971 267.938 317.793C268.549 313.658 269.448 311.278 271.578 306.975C275.019 313.561 275.894 317.685 275.673 325.907C259.564 335.119 251.441 342.007 237.91 356.107V367.827L280.223 387.66C282.412 388.308 283.606 388.286 285.682 387.66C299.379 379.883 305.323 374.175 313.891 362.418L292.507 356.558C300.231 356.757 303.946 356.385 309.341 354.755C314.376 351.838 316.216 348.749 317.531 340.331H296.147C305.497 337.874 309.872 335.815 316.621 331.316C314.733 323.987 313.024 320.074 309.341 313.286C315.698 316.043 318.82 317.984 323.445 322.301C332.274 304.753 339.217 296.814 353.474 284.437C354.761 310.89 350.069 330.874 335.275 369.63C364.297 334.284 371.517 308.431 363.483 248.377C388.992 274.41 399.42 288.311 405.341 319.146V379.096L361.664 419.213C363.298 409.701 364.648 401.701 366.213 383.603C329.15 443.731 301.074 472.69 237 515.224V531C312.285 475.873 353.79 444.354 418.991 385.406V310.581C407.483 256.847 393.609 225.87 357.114 175.355C385.035 193.089 400.763 205.458 429 233.502C408.304 188.635 388.683 166.226 338.005 131.632C345.603 119.085 349.082 111.969 354.384 99.1775C340.223 99.791 332.704 99.1823 320.261 101.431C340.316 78.7916 351.929 66.2927 384.535 50.2745Z" stroke="black"/>
<path d="M237 383V449C249.406 439.211 255.226 432.62 264.222 419.52L266.037 434.48C276.487 424.514 281.227 418.709 286 407.64C271.983 393.731 261.069 388.491 237 383Z" fill="black" stroke="black"/>
<path d="M181 406.778L221 445V385C202.38 388.264 193.62 393.037 181 406.778Z" fill="black" stroke="black"/>
<path d="M90 347L149 415L111.071 380.766L90 347Z" fill="black" stroke="black"/>
<path d="M269.434 101H165.2L152 88H284L269.434 101Z" fill="black" stroke="black"/>
<path d="M188.94 239.31L192 269L172.765 251.972L139.541 240.183C131.815 230.474 128.619 225.134 124.24 215.732L112 207C134.126 207.395 146.221 208.703 167.082 213.549L188.94 239.31Z" fill="white" stroke="black"/>
<path d="M273.98 212.723C268.361 244.1 270.146 260.061 284.01 285C281.512 262.919 281.662 252.243 287.657 239.492C304.419 236.696 312.16 232.484 322.763 219.862L341 206.923L315.012 198H299.967C288.982 202.487 283.223 205.606 273.98 212.723Z" fill="white" stroke="black"/>
<path d="M149.279 235.171L174 242L163.541 223.463L145 222L149.279 235.171Z" fill="black" stroke="black"/>
<path d="M294.298 228L283 223L285.947 215.778C295.903 215.624 301.267 214.519 311 213C307.029 220.559 303.735 224.085 294.298 228Z" fill="black" stroke="black"/>
</svg>
