<svg
        width="25"
        height="24"
        viewBox="0 0 25 24"
        fill="none"
        xmlns="http://www.w3.org/2000/svg"
      >
        <path
          d="M8.75 2.5C5.58319 2.5 3 5.08319 3 8.25V15.75C3 18.9164 5.5831 21.5 8.75 21.5H16.25C19.4165 21.5 22 18.9165 22 15.75V8.25C22 5.0831 19.4164 2.5 16.25 2.5H8.75ZM8.75 4H16.25C18.6056 4 20.5 5.8939 20.5 8.25V15.75C20.5 18.1055 18.6055 20 16.25 20H8.75C6.3939 20 4.5 18.1056 4.5 15.75V8.25C4.5 5.89381 6.39381 4 8.75 4ZM17.5 6C16.9475 6 16.5 6.4475 16.5 7C16.5 7.5525 16.9475 8 17.5 8C18.0525 8 18.5 7.5525 18.5 7C18.5 6.4475 18.0525 6 17.5 6ZM12.5 7C9.74759 7 7.5 9.24759 7.5 12C7.5 14.7524 9.74759 17 12.5 17C15.2524 17 17.5 14.7524 17.5 12C17.5 9.24759 15.2524 7 12.5 7ZM12.5 8.5C14.4416 8.5 16 10.0584 16 12C16 13.9416 14.4416 15.5 12.5 15.5C10.5584 15.5 9 13.9416 9 12C9 10.0584 10.5584 8.5 12.5 8.5Z"
          
        />
      </svg>