<svg width="41" height="41" viewBox="0 0 449 570" fill="none" xmlns="http://www.w3.org/2000/svg">
<rect x="0.5" y="0.5" width="448" height="569" stroke="black"/>
<path d="M218.979 386.641L183.248 402.065C180.114 402.818 178.554 402.754 176.612 400.573C168.23 386.062 164.184 376.847 158.237 358.28V353.304L174.571 300.562L142.413 351.811L152.111 389.129C139.09 369.059 132.68 357.368 123.527 335.391C84.78 314.083 57.6759 307.03 1.53132 301.557C24.4582 277.226 36.4569 262.995 54.6171 235.381C32.3886 240.653 20.5078 244.599 0 252.795C37.6879 196.085 62.9222 168.398 113.828 124.921C92.6222 91.7755 77.9869 73.8504 47.9814 42.8224C37.4357 87.4633 38.7355 112.292 52.0649 156.268L38.7935 166.219C16.6655 108.715 15.2136 73.7874 33.1787 6.5L146.496 108.999H220V327.43L198.051 328.426L185.29 341.86L218.979 378.182V386.641Z" fill="white"/>
<path d="M15 404.092L220 569.5V551.85L27.0588 395.519V339.039L15 334.5V404.092Z" fill="white"/>
<path d="M238 552.298V570C320.735 508.145 366.348 472.78 438 406.637V322.68C425.354 262.387 410.107 227.63 370 170.949C400.684 190.848 417.969 204.726 449 236.193C426.256 185.85 404.694 160.707 349 121.89C357.35 107.812 361.173 99.827 367 85.4747C351.438 86.1632 343.174 85.4801 329.5 88.0035C351.54 62.6008 364.302 48.5764 400.135 30.6032C407.54 72.6885 406.695 95.2833 395.5 133.017L407.5 140.603C421.03 83.4661 423.219 52.5645 415 0C353.224 30.6793 324.285 52.875 289.5 107.223H239.5V326.22C252.954 326.688 260.115 327.605 272 330.772C272.671 326.132 273.659 323.461 276 318.634C279.781 326.023 280.743 330.65 280.5 339.876C262.797 350.212 253.87 357.941 239 373.762V386.912L285.5 409.166C287.906 409.893 289.218 409.869 291.5 409.166C306.552 400.439 313.084 394.035 322.5 380.843L299 374.268C307.488 374.491 311.57 374.074 317.5 372.245C323.033 368.972 325.055 365.506 326.5 356.06H303C313.276 353.303 318.084 350.993 325.5 345.945C323.426 337.722 321.548 333.331 317.5 325.714C324.486 328.808 327.917 330.986 333 335.83C342.702 316.14 350.333 307.232 366 293.345C367.415 323.026 362.258 345.449 346 388.935C377.894 349.275 385.828 320.267 377 252.884C405.033 282.094 416.493 297.692 423 332.289V399.556L375 444.57C376.796 433.897 378.28 424.92 380 404.614C339.269 472.08 308.415 504.573 238 552.298Z" fill="white"/>
<path d="M238 403.5V478.5C251.672 467.376 258.086 459.887 268 445L270 462C281.516 450.675 286.74 444.078 292 431.5C276.553 415.694 264.526 409.739 238 403.5Z" fill="white"/>
<path d="M177 431L220.5 474V406.5C200.25 410.172 190.725 415.542 177 431Z" fill="white"/>
<path d="M77 363L142 440L100.214 401.234L77 363Z" fill="white"/>
<path d="M274 87H159.5L145 72.5H290L274 87Z" fill="white"/>
<path d="M185.634 242.979L189 276.5L167.842 257.275L131.295 243.965C122.797 233.002 119.28 226.973 114.464 216.359L101 206.5C125.339 206.946 138.643 208.423 161.59 213.894L185.634 242.979Z" fill="black" stroke="black"/>
<path d="M278.278 213.085C272.098 248.428 274.061 266.407 289.311 294.5C286.563 269.627 286.729 257.601 293.323 243.238C311.761 240.089 320.276 235.344 331.939 221.126L352 206.551L323.414 196.5H306.864C294.78 201.555 288.445 205.068 278.278 213.085Z" fill="black"/>
<path d="M141.721 237.988L169 245.5L157.459 225.11L137 223.5L141.721 237.988Z" fill="white"/>
<path d="M301.105 229.5L289 224.167L292.158 216.463C302.824 216.298 308.572 215.12 319 213.5C314.746 221.563 311.216 225.324 301.105 229.5Z" fill="white"/>
</svg>
