<svg
        width="24"
        height="24"
        viewBox="0 0 24 24"
        fill="white"
        xmlns="http://www.w3.org/2000/svg"
      >
        <path
          d="M6.25 3C4.46403 3 3 4.46403 3 6.25V17.75C3 19.536 4.46403 21 6.25 21H17.75C19.536 21 21 19.536 21 17.75V6.25C21 4.46403 19.536 3 17.75 3H6.25ZM6.25 4.5H17.75C18.725 4.5 19.5 5.27497 19.5 6.25V17.75C19.5 18.725 18.725 19.5 17.75 19.5H6.25C5.27497 19.5 4.5 18.725 4.5 17.75V6.25C4.5 5.27497 5.27497 4.5 6.25 4.5ZM6.91406 7L10.7822 12.5283L6.91113 17H7.93262L11.2344 13.1758L13.9102 17H17.1289L13.0127 11.1172L16.5684 7H15.5684L12.5615 10.4717L10.1328 7H6.91406ZM8.46777 7.84766H9.74902L15.5752 16.1523H14.2939L8.46777 7.84766Z"
          
        />
      </svg>